<?xml version="1.0" encoding="UTF-8"?>
<svg id="Ebene_1" xmlns="http://www.w3.org/2000/svg" version="1.1" viewBox="0 0 249.85 203.58">
  <!-- Generator: Adobe Illustrator 29.6.0, SVG Export Plug-In . SVG Version: 2.1.1 Build 207)  -->
  <defs>
    <style>
      .st0 {
        font-family: Geist-Light, Geist;
        font-size: 21px;
        font-weight: 300;
      }

      .st1 {
        font-family: Geist-BlackItalic, Geist;
        font-size: 58px;
        font-style: italic;
        font-weight: 800;
      }

      .st2 {
        fill: none;
        stroke: #000;
        stroke-miterlimit: 10;
        stroke-width: 6px;
      }
    </style>
  </defs>
  <path d="M3.4,25c1.8,1.9,4.8,2.7,7.1,2.7,4.9,0,9.4-2.6,9.4-8.8s-4.7-7.9-9.1-9.5c-1.9-.6-4.5-1.1-4.5-3.8,0-2.3,2.2-3.2,3.8-3.2,3.1,0,5.1,2.6,6.3,5.6h2.2V0h-2.2l-.9,2.1c-2.1-1.5-3.9-2.1-6.4-2.1C4.6,0,.5,2.5.5,8.1c0,5.9,3.9,7.8,8.3,9.2,1.8.6,5,1.3,5,4.1,0,2.6-2.2,3.8-4.3,3.8-3.7,0-5.9-3.2-7.4-6.7H0l.3,8.4h2.2l.9-1.9Z"/>
  <path d="M45.2,11.3c0-6.8-5.2-11.3-11.1-11.3-7.4,0-13.1,5.8-12.8,14.3.3,8.3,5.8,13.4,13,13.4,4.3,0,8.1-2,10.4-6l-1.7-1.5c-2.1,2.4-3.6,4.1-6.7,4.1-5.8,0-7.2-6.1-7.1-11.5h13.8c1.3,0,2.2.2,2.2-1.5M38.1,8.6c0,1.3-.4,1.7-1.6,1.7h-7.2c.1-3.2,1.1-7.9,4.5-7.9,2.7,0,4.3,3.4,4.3,6.2"/>
  <path d="M56.8,14.1c0-2-.1-4.6.7-6.4.9-2,2.3-3.8,4.5-3.8,3.7,0,3.5,4.9,3.5,7.8v7.6c0,1,0,3.8-.5,4.6-.6.9-2,1-2.9,1v2.1c2.5-.1,5.1-.2,7.6-.2,2.1.1,4.3.2,6.4.2v-2c-.9,0-2.3-.2-2.9-1.1-.5-.8-.5-3.5-.5-4.6v-8c0-2.5.1-6.1-1.3-8.1C69.9,1,67.3,0,64.9,0,61.4,0,58.9,2.3,56.8,5.5L56.2,0c-3.3,1.5-6.6,2-10,2.4v2c3.6,0,3.5,2.9,3.5,6.2v8.7c0,1,0,3.8-.5,4.6-.6.9-2,1.1-2.9,1.1v2c2.3-.1,4.6-.2,6.9-.2,2.3.1,4.6.2,7,.2v-2c-.9,0-2.3-.2-2.9-1.1-.5-.8-.5-3.5-.5-4.6,0,0,0-5.2,0-5.2Z"/>
  <path d="M81.1,25c1.8,1.9,4.8,2.7,7.1,2.7,4.9,0,9.4-2.6,9.4-8.8s-4.7-7.9-9.1-9.5c-1.9-.6-4.5-1.1-4.5-3.8,0-2.3,2.2-3.2,3.8-3.2,3.1,0,5.1,2.6,6.3,5.6h2.2V0h-2.2l-.8,2.1c-2.1-1.5-3.9-2.1-6.4-2.1-4.5,0-8.6,2.5-8.6,8.1,0,5.9,3.9,7.8,8.3,9.2,1.8.6,5,1.3,5,4.1,0,2.6-2.2,3.8-4.3,3.8-3.7,0-5.9-3.2-7.4-6.7h-2.2l.3,8.3h2.2s.9-1.8.9-1.8Z"/>
  <path d="M122.9,11.3c0-6.8-5.2-11.3-11.1-11.3-7.4,0-13.2,5.8-12.9,14.3.3,8.3,5.8,13.4,13,13.4,4.3,0,8.1-2,10.4-6l-1.7-1.5c-2.1,2.4-3.5,4.1-6.6,4.1-5.8,0-7.2-6.1-7.1-11.5h13.8c1.3,0,2.2.2,2.2-1.5M115.8,8.6c0,1.3-.4,1.7-1.6,1.7h-7.2c.1-3.2,1.1-7.9,4.5-7.9,2.7,0,4.3,3.4,4.3,6.2"/>
  <path d="M127.8,25c1.8,1.9,4.8,2.7,7.1,2.7,4.9,0,9.4-2.6,9.4-8.8s-4.7-7.9-9.1-9.5c-1.9-.6-4.5-1.1-4.5-3.8,0-2.3,2.2-3.2,3.8-3.2,3.1,0,5.1,2.6,6.3,5.6h2.2V0h-2.2l-.9,2.1c-2.1-1.5-3.9-2.1-6.4-2.1-4.5,0-8.6,2.5-8.6,8.1,0,5.9,3.9,7.8,8.3,9.2,1.8.6,5,1.3,5,4.1,0,2.6-2.2,3.8-4.3,3.8-3.7,0-5.9-3.2-7.4-6.7h-2.2l.3,8.3h2.2s1-1.8,1-1.8Z"/>
  <path d="M10.7,36.6c-3.6,1-7.1,1.5-10.6,1.8v2c2.9-.1,3.5,1.3,3.5,5v10.6c0,1,0,3.8-.5,4.6-.6.9-2,1.1-2.9,1.1v2c2.5-.1,4.8-.2,7.3-.2,2.3.1,4.5.2,6.7.2v-2c-.9,0-2.3-.2-2.9-1.1-.5-.8-.5-3.5-.5-4.6v-19.4s-.1,0-.1,0Z"/>
  <path d="M26.1,50.7c0-2-.1-4.6.7-6.4.9-2,2.3-3.8,4.5-3.8,3.7,0,3.5,4.9,3.5,7.8v7.6c0,1,0,3.8-.5,4.6-.6.9-2,1-2.9,1v2.1c2.5-.1,5.1-.2,7.6-.2,2.1.1,4.3.2,6.4.2v-2c-.9,0-2.3-.2-2.9-1.1-.5-.8-.5-3.5-.5-4.6v-8.1c0-2.5.1-6.1-1.3-8.1-1.5-2.2-4.1-3.2-6.5-3.2-3.5,0-6,2.3-8.1,5.5l-.6-5.5c-3.3,1.5-6.6,2-10,2.4v2c3.6,0,3.5,2.9,3.5,6.2v8.7c0,1,0,3.8-.5,4.6-.6.9-2,1.1-2.9,1.1v2c2.3-.1,4.6-.2,6.9-.2,2.3.1,4.6.2,7,.2v-2c-.9,0-2.3-.2-2.9-1.1-.5-.8-.5-3.5-.5-4.6,0,0,0-5.1,0-5.1Z"/>
  <path d="M60.1,40.1v-2.4h-5.5v-8.4h-2.3c-1.1,4.5-3.8,7.6-7.7,8.9v1.8h2.9v15.4c0,5.3,1.1,8.8,6.5,8.8,3.2,0,5.9-1.5,7.7-4.6l-1.9-1.4c-.8,1.2-1.9,2.4-3.2,2.4-2,0-2-2.8-2-5.1v-15.4h5.5Z"/>
  <path d="M85.5,47.9c0-6.8-5.2-11.3-11.1-11.3-7.4,0-13.2,5.8-12.9,14.3.3,8.3,5.8,13.4,13,13.4,4.3,0,8.1-2,10.4-6l-1.6-1.5c-2.1,2.4-3.5,4.1-6.6,4.1-5.8,0-7.2-6.1-7.1-11.5h13.8c1.3,0,2.1.2,2.1-1.5M78.4,45.2c0,1.3-.4,1.7-1.6,1.7h-7.2c.1-3.2,1.1-7.9,4.5-7.9,2.8.1,4.3,3.4,4.3,6.2"/>
  <path d="M113.9,39.4c0-2.1-1.6-3.1-3.3-3.1-2.1,0-3.9,1.1-5.4,2.6-2-1.7-4.5-2.3-7-2.3-5.4,0-10.5,3.2-10.5,10,0,4,2.3,7,5.6,8.1v.1c-2.7.5-5.2,2.9-5.2,6.2,0,6.5,6.3,6.5,10.5,6.5,3,0,8.1-.4,8.1,4.4s-5.1,5.7-8.2,5.7c-2.6,0-6.8-1-6.8-4.8,0-1,.2-1.3.8-2,.2-.2.5-.4.5-.7,0-.9-1.7-1.5-2.4-1.5-2,0-3.7,1.9-3.7,4.2,0,6.1,7.7,7.3,11.7,7.3,5.8,0,13.2-2.3,13.2-10.3,0-8.4-6.6-9.4-12.5-9.4-1.4,0-6.1.5-6.1-2.1s2.7-2.4,4.4-2.6c2.8-.1,5.6-.4,8-2.2,2.2-1.6,3.2-4.3,3.2-7.2,0-2.1-.7-4.2-2-5.7.3-.5.5-.7,1-.7,1.4,0,2,2.1,3.7,2.1,1.4,0,2.4-1.1,2.4-2.6M101.5,46.7c0,2.4-.3,6.7-3.3,6.5-3.1-.2-3.4-4.1-3.4-6.6,0-2.8.1-7.6,3.4-7.6,3.1.1,3.3,5.3,3.3,7.7"/>
  <path d="M114.8,41c2.8.2,3.6,1.2,3.6,5.1v9.9c0,1,0,3.8-.5,4.6-.6.9-2,1.1-2.9,1.1v2c2.2-.1,4.5-.2,6.8-.2,2.5.1,5.1.2,7.6.2v-2c-3.8.1-3.8-1.2-3.8-5.7v-6.1c0-2.1.4-8.1,3.3-8.1,1.8,0,1.4,2.6,4.3,2.6,1.7,0,3.1-1.1,3.1-3.1,0-2.6-1.9-4.7-4.1-4.7-3,0-5.6,3.1-6.9,5.9h-.1l-.4-5.9-10,2.4v2h0Z"/>
  <path d="M162.4,60.5l-1.1-1.7c-.6.6-1,.9-1.9.9-1.1,0-1.1-2.1-1.1-3.1v-12.4c0-6.2-5-7.6-9.7-7.6-3.4,0-10.5.9-10.5,6.1,0,2,1.3,3.3,2.9,3.3,2.2,0,2.9-1.9,3.5-3.9.8-2.1,1.4-3.1,3.4-3.1,2.9,0,3.2,2.7,3.2,5.4,0,2.3-1.4,2.3-3.1,3.1-4.8,2.1-11,4.2-11,10.2,0,4,2.8,6.6,6.3,6.6,2.8,0,5.7-1.8,7.7-4.1.7,2.8,2.1,4.1,4.7,4.1,2.4,0,5.5-1.4,6.7-3.8M151.2,55.9c0,2-2,3.8-3.7,3.8-2,0-2.7-2.2-2.7-4.2,0-3.9,3.6-5.6,6.3-6.9v7.3h.1,0Z"/>
  <path d="M176.3,40.1v-2.4h-5.5v-8.4h-2.3c-1.1,4.5-3.8,7.6-7.7,8.9v1.8h2.9v15.4c0,5.3,1.1,8.8,6.5,8.8,3.2,0,5.9-1.5,7.7-4.6l-1.9-1.4c-.8,1.2-1.9,2.4-3.2,2.4-2,0-2-2.8-2-5.1v-15.4h5.5Z"/>
  <path d="M189.6,36.6c-3.6,1-7.1,1.5-10.6,1.8v2c2.9-.1,3.5,1.3,3.5,5v10.6c0,1,0,3.8-.5,4.6-.6.9-2,1.1-2.9,1.1v2c2.5-.1,4.9-.2,7.3-.2,2.3.1,4.5.2,6.7.2v-2c-.9,0-2.3-.2-2.9-1.1-.5-.8-.5-3.5-.5-4.6v-19.4h-.1Z"/>
  <path d="M219,50.4c0-8.2-6.1-13.8-13.1-13.8s-13.3,5.6-13.3,13.7c0,8.5,6.3,14,13.5,14s12.9-5.8,12.9-13.9M211.1,50.6c0,3.5-.2,11.2-4.7,11.2-5.4,0-5.8-7.1-5.8-11.6,0-4,.6-11.2,5.4-11.2,5,.1,5.1,7.5,5.1,11.6"/>
  <path d="M229.8,50.7c0-2-.1-4.6.7-6.4.9-2,2.3-3.8,4.5-3.8,3.7,0,3.5,4.9,3.5,7.8v7.6c0,1,0,3.8-.5,4.6-.6.9-2,1-2.9,1v2.1c2.5-.1,5.1-.2,7.6-.2,2.1.1,4.3.2,6.4.2v-2c-.9,0-2.3-.2-2.9-1.1-.5-.8-.5-3.5-.5-4.6v-8.1c0-2.5.1-6.1-1.3-8.1-1.5-2.2-4.1-3.2-6.5-3.2-3.5,0-6,2.3-8.1,5.5l-.6-5.5c-3.3,1.5-6.6,2-10,2.4v2c3.6,0,3.5,2.9,3.5,6.2v8.7c0,1,0,3.8-.5,4.6-.6.9-2,1.1-2.9,1.1v2c2.3-.1,4.6-.2,6.9-.2,2.3.1,4.6.2,7,.2v-2c-.9,0-2.3-.2-2.9-1.1-.5-.8-.5-3.5-.5-4.6v-5.1Z"/>
  <line class="st2" x1="133.41" y1="113.9" x2="116.44" y2="96.93"/>
  <line class="st2" x1="133.41" y1="96.93" x2="116.44" y2="113.9"/>
  <text class="st1" transform="translate(.1 198.57)"><tspan x="0" y="0">SENURY</tspan></text>
  <text class="st0" transform="translate(7.15 147.83)"><tspan x="0" y="0">DASHBOARDS</tspan></text>
</svg>